<?xml version="1.0" standalone="no"?>
<!DOCTYPE svg PUBLIC "-//W3C//DTD SVG 20010904//EN"
 "http://www.w3.org/TR/2001/REC-SVG-20010904/DTD/svg10.dtd">
<svg version="1.0" xmlns="http://www.w3.org/2000/svg"
 width="582.000000pt" height="582.000000pt" viewBox="0 0 582.000000 582.000000"
 preserveAspectRatio="xMidYMid meet">
<metadata>
Created by potrace 1.14, written by Peter Selinger 2001-2017
</metadata>
<g transform="translate(0.000000,582.000000) scale(0.100000,-0.100000)"
fill="#000000" stroke="none">
<path d="M5625 5685 c-44 -25 -87 -48 -95 -52 -23 -10 -243 -156 -258 -170 -7
-7 -17 -13 -22 -13 -5 0 -15 -6 -22 -13 -7 -7 -67 -54 -133 -104 -66 -50 -130
-99 -141 -109 -12 -11 -46 -39 -75 -64 -118 -100 -224 -197 -365 -337 -103
-100 -128 -120 -146 -115 -13 3 -97 43 -188 90 -153 77 -210 118 -210 150 0 6
-4 12 -8 12 -4 0 -15 12 -24 28 -41 69 -146 147 -228 171 -133 39 -260 30
-260 -17 0 -9 16 -34 35 -55 28 -32 33 -42 24 -58 -5 -10 -15 -19 -22 -19
-206 -9 -300 -39 -384 -127 -62 -63 -111 -190 -107 -273 5 -81 11 -112 28
-128 14 -14 17 -14 35 2 11 10 23 28 27 40 16 49 105 107 200 129 85 20 156
13 264 -23 52 -17 103 -33 113 -36 9 -2 27 -6 40 -10 96 -23 195 -12 247 28
30 23 70 86 70 110 0 28 17 30 57 7 77 -45 148 -78 190 -91 24 -7 43 -15 43
-19 0 -3 -15 -22 -32 -41 -18 -19 -62 -68 -97 -109 -36 -41 -72 -82 -80 -91
-9 -10 -23 -26 -32 -35 -32 -36 -155 -191 -243 -308 -25 -33 -53 -69 -61 -80
-83 -108 -278 -392 -371 -540 -17 -28 -48 -76 -68 -108 -20 -31 -36 -62 -36
-67 0 -6 -4 -10 -9 -10 -5 0 -11 -8 -15 -17 -3 -10 -11 -27 -18 -38 -7 -11
-20 -31 -29 -45 -9 -14 -28 -45 -42 -70 -14 -25 -65 -115 -114 -200 -113 -195
-187 -329 -264 -480 -19 -36 -37 -67 -42 -68 -4 -2 -5 -8 -1 -13 3 -5 0 -9 -7
-9 -7 0 -9 -3 -6 -7 4 -3 3 -11 -2 -17 -9 -11 -175 -337 -176 -346 -1 -3 -31
-67 -68 -144 -37 -76 -67 -142 -67 -147 0 -31 -28 13 -115 184 -54 105 -110
215 -125 242 -15 28 -71 136 -125 240 -328 637 -417 809 -427 822 -10 13 -10
13 -67 -22 -56 -35 -215 -132 -229 -140 -35 -20 -532 -321 -574 -347 -24 -15
-50 -31 -58 -35 -8 -4 -43 -24 -78 -45 -34 -21 -67 -38 -72 -38 -6 0 -10 -4
-10 -8 0 -5 -15 -16 -32 -25 -87 -46 -507 -301 -508 -308 0 -4 15 -12 33 -19
17 -7 41 -16 52 -20 57 -22 348 -169 401 -202 34 -21 64 -38 68 -38 4 0 12 -5
19 -10 7 -6 77 -53 156 -106 80 -52 173 -117 208 -144 34 -28 67 -50 72 -50 5
0 11 -3 13 -7 2 -5 48 -44 103 -87 83 -66 147 -120 241 -201 264 -228 595
-556 854 -845 41 -46 85 -94 97 -107 12 -13 58 -69 104 -123 64 -76 85 -95 95
-87 6 7 12 14 11 17 -1 5 53 93 70 115 4 6 17 27 28 48 11 20 23 37 27 37 5 0
8 5 8 10 0 9 87 151 108 176 5 5 15 21 22 34 7 13 17 29 21 34 5 6 53 76 106
156 134 202 390 559 437 613 9 9 16 20 16 25 0 4 16 24 35 46 19 21 35 41 35
45 0 3 10 17 23 31 12 14 38 45 57 70 19 25 42 54 50 64 8 11 25 30 38 43 12
13 22 26 22 29 0 3 6 11 13 18 6 7 26 30 42 51 17 20 35 42 40 49 11 13 110
129 140 164 22 27 31 36 131 148 160 177 392 414 559 569 142 133 120 113 234
210 52 44 104 89 117 100 12 11 35 29 50 40 16 11 35 27 44 35 8 8 31 26 50
40 19 13 41 31 49 38 8 8 30 25 50 38 20 13 50 34 67 46 17 13 58 41 90 63 32
22 61 43 64 46 9 12 305 185 365 214 33 16 61 30 63 31 2 1 -10 28 -27 60 -32
64 -77 179 -91 234 -5 19 -14 53 -19 75 -6 22 -15 67 -21 100 -5 33 -12 71
-14 85 -21 118 -29 542 -13 710 5 47 10 103 12 125 8 101 16 182 20 205 3 14
7 45 10 70 3 25 7 61 10 80 3 19 7 58 10 85 4 28 8 64 10 80 7 54 17 225 14
225 -2 -1 -40 -21 -84 -45z m-1875 -760 c123 -20 178 -38 189 -62 15 -34 15
-34 -29 -18 -22 8 -40 12 -40 8 0 -3 -7 0 -15 7 -8 7 -15 10 -15 8 0 -3 -33 1
-72 8 -75 13 -335 12 -392 -2 -22 -5 -28 -4 -24 7 5 14 76 35 153 45 28 4 51
8 53 9 5 4 152 -3 192 -10z"/>
</g>
</svg>
