<?xml version="1.0" encoding="UTF-8" standalone="no"?>
<!DOCTYPE svg PUBLIC "-//W3C//DTD SVG 1.1//EN" "http://www.w3.org/Graphics/SVG/1.1/DTD/svg11.dtd">
<svg width="100%" height="100%" viewBox="0 0 1792 565" version="1.1" xmlns="http://www.w3.org/2000/svg" xmlns:xlink="http://www.w3.org/1999/xlink" xml:space="preserve" xmlns:serif="http://www.serif.com/" style="fill-rule:evenodd;clip-rule:evenodd;stroke-linejoin:round;stroke-miterlimit:2;">
    <g transform="matrix(1,0,0,1,1209.99,0)">
        <path d="M439.18,102.959C433.791,102.053 415.065,91.691 399.545,83.571C399.545,83.571 390.032,60.671 367.82,56.153C345.608,51.636 341.745,57.811 346.639,62.328C348.797,64.32 350.412,66.049 351.139,67.433C352.061,69.188 351.869,71.437 349.227,71.911C342.588,73.099 311.695,68.874 301.64,99.643C297.377,112.686 300.384,116.579 300.379,119.287C300.364,127.696 305.947,127.691 308.611,120.376C311.392,112.74 331.461,101.485 351.952,108.832C371.816,115.953 397.147,124.494 403.116,97.437C403.116,97.437 423.297,110.085 432.025,110.525C401.257,143.535 368.134,185.252 335.713,237.352C277.554,330.81 241.957,412.001 241.957,412.001L163.284,259.863L0,358.305C125.365,404.893 251.576,564.14 251.576,564.14C426.72,275.522 581.082,213.458 581.082,213.458C542.117,143.152 572.14,36.047 570.917,0C570.917,0 512.62,26.425 439.18,102.959ZM365.011,84.07C345.811,82.799 335.293,86.611 335.293,86.611L335.293,83.905C335.293,83.905 349.976,78.07 367.34,79.623C384.705,81.176 392.893,84.705 392.893,84.705L395.576,90.117C395.576,90.117 384.211,85.341 365.011,84.07Z" style="fill:url(#_Linear1);fill-rule:nonzero;"/>
    </g>
    <g transform="matrix(1,0,0,1,94.417,240.401)">
        <path d="M0,-2.783C0,-10.903 -1.006,-18.46 -3.016,-25.459C-5.027,-32.457 -8.177,-38.509 -12.469,-43.612C-16.761,-48.716 -22.194,-52.698 -28.766,-55.559C-35.339,-58.419 -43.807,-59.851 -54.168,-59.851L-74.466,-59.851L-74.466,56.952L-53.936,56.952C-44.348,56.952 -36.267,55.755 -29.693,53.356C-23.122,50.961 -17.63,47.287 -13.223,42.338C-8.815,37.389 -5.509,31.184 -3.306,23.721C-1.102,16.259 0,7.424 0,-2.783M20.995,-3.595C20.995,9.396 19.331,20.745 16.007,30.448C12.681,40.153 7.83,48.195 1.45,54.575C-4.93,60.954 -12.759,65.729 -22.038,68.899C-31.317,72.071 -42.376,73.655 -55.211,73.655L-86.993,73.655C-88.773,73.655 -90.455,73.057 -92.039,71.857C-93.625,70.659 -94.417,68.551 -94.417,65.536L-94.417,-68.318C-94.417,-71.334 -93.625,-73.44 -92.039,-74.64C-90.455,-75.838 -88.773,-76.438 -86.993,-76.438L-53.008,-76.438C-40.017,-76.438 -29.038,-74.756 -20.066,-71.392C-11.097,-68.028 -3.578,-63.195 2.494,-56.893C8.563,-50.59 13.165,-42.954 16.297,-33.985C19.429,-25.013 20.995,-14.885 20.995,-3.595" style="fill:rgb(104,193,0);fill-rule:nonzero;"/>
    </g>
    <g transform="matrix(1,0,0,1,233.375,208.273)">
        <path d="M0,102.884C0,103.503 -0.136,104.026 -0.406,104.449C-0.678,104.875 -1.16,105.243 -1.856,105.551C-2.552,105.86 -3.461,106.091 -4.582,106.247C-5.704,106.402 -7.075,106.48 -8.699,106.48C-10.479,106.48 -11.929,106.402 -13.049,106.247C-14.171,106.091 -15.061,105.86 -15.717,105.551C-16.375,105.243 -16.819,104.875 -17.051,104.449C-17.283,104.026 -17.398,103.503 -17.398,102.884L-17.398,89.08C-23.354,95.655 -29.229,100.447 -35.029,103.463C-40.829,106.48 -46.706,107.988 -52.66,107.988C-59.619,107.988 -65.477,106.827 -70.232,104.507C-74.988,102.188 -78.836,99.037 -81.774,95.054C-84.713,91.072 -86.819,86.433 -88.095,81.135C-89.371,75.839 -90.009,69.402 -90.009,61.823L-90.009,-1.509C-90.009,-2.126 -89.875,-2.648 -89.603,-3.074C-89.333,-3.498 -88.811,-3.887 -88.037,-4.234C-87.265,-4.582 -86.259,-4.814 -85.021,-4.93C-83.786,-5.046 -82.238,-5.104 -80.382,-5.104C-78.526,-5.104 -76.98,-5.046 -75.742,-4.93C-74.506,-4.814 -73.52,-4.582 -72.784,-4.234C-72.05,-3.887 -71.528,-3.498 -71.218,-3.074C-70.91,-2.648 -70.754,-2.126 -70.754,-1.509L-70.754,59.271C-70.754,65.381 -70.311,70.272 -69.42,73.944C-68.533,77.617 -67.179,80.749 -65.361,83.339C-63.545,85.931 -61.243,87.941 -58.459,89.37C-55.676,90.802 -52.428,91.517 -48.716,91.517C-43.922,91.517 -39.147,89.817 -34.391,86.413C-29.636,83.011 -24.59,78.024 -19.254,71.45L-19.254,-1.509C-19.254,-2.126 -19.12,-2.648 -18.849,-3.074C-18.579,-3.498 -18.057,-3.887 -17.283,-4.234C-16.511,-4.582 -15.524,-4.814 -14.325,-4.93C-13.127,-5.046 -11.561,-5.104 -9.627,-5.104C-7.771,-5.104 -6.226,-5.046 -4.987,-4.93C-3.751,-4.814 -2.784,-4.582 -2.088,-4.234C-1.392,-3.887 -0.87,-3.498 -0.522,-3.074C-0.174,-2.648 0,-2.126 0,-1.509L0,102.884Z" style="fill:rgb(104,193,0);fill-rule:nonzero;"/>
    </g>
    <g transform="matrix(1,0,0,1,358.181,208.273)">
        <path d="M0,102.884C0,103.503 -0.136,104.026 -0.406,104.449C-0.678,104.875 -1.16,105.243 -1.856,105.551C-2.552,105.86 -3.461,106.091 -4.582,106.247C-5.704,106.402 -7.075,106.48 -8.699,106.48C-10.479,106.48 -11.929,106.402 -13.049,106.247C-14.171,106.091 -15.061,105.86 -15.717,105.551C-16.375,105.243 -16.819,104.875 -17.051,104.449C-17.283,104.026 -17.398,103.503 -17.398,102.884L-17.398,89.08C-23.354,95.655 -29.229,100.447 -35.029,103.463C-40.829,106.48 -46.706,107.988 -52.66,107.988C-59.619,107.988 -65.477,106.827 -70.232,104.507C-74.988,102.188 -78.836,99.037 -81.774,95.054C-84.713,91.072 -86.819,86.433 -88.095,81.135C-89.371,75.839 -90.009,69.402 -90.009,61.823L-90.009,-1.509C-90.009,-2.126 -89.875,-2.648 -89.603,-3.074C-89.333,-3.498 -88.811,-3.887 -88.037,-4.234C-87.265,-4.582 -86.259,-4.814 -85.021,-4.93C-83.786,-5.046 -82.238,-5.104 -80.382,-5.104C-78.526,-5.104 -76.98,-5.046 -75.742,-4.93C-74.506,-4.814 -73.52,-4.582 -72.784,-4.234C-72.05,-3.887 -71.528,-3.498 -71.218,-3.074C-70.91,-2.648 -70.754,-2.126 -70.754,-1.509L-70.754,59.271C-70.754,65.381 -70.311,70.272 -69.42,73.944C-68.533,77.617 -67.179,80.749 -65.361,83.339C-63.545,85.931 -61.243,87.941 -58.459,89.37C-55.676,90.802 -52.428,91.517 -48.716,91.517C-43.922,91.517 -39.147,89.817 -34.391,86.413C-29.636,83.011 -24.59,78.024 -19.254,71.45L-19.254,-1.509C-19.254,-2.126 -19.12,-2.648 -18.849,-3.074C-18.579,-3.498 -18.057,-3.887 -17.283,-4.234C-16.511,-4.582 -15.524,-4.814 -14.325,-4.93C-13.127,-5.046 -11.561,-5.104 -9.627,-5.104C-7.771,-5.104 -6.226,-5.046 -4.987,-4.93C-3.751,-4.814 -2.784,-4.582 -2.088,-4.234C-1.392,-3.887 -0.87,-3.498 -0.522,-3.074C-0.174,-2.648 0,-2.126 0,-1.509L0,102.884Z" style="fill:rgb(104,193,0);fill-rule:nonzero;"/>
    </g>
    <g transform="matrix(1,0,0,1,454.57,302.69)">
        <path d="M0,-89.082C0,-87.38 -0.04,-85.95 -0.116,-84.79C-0.194,-83.63 -0.348,-82.721 -0.58,-82.065C-0.812,-81.407 -1.102,-80.905 -1.45,-80.557C-1.798,-80.209 -2.282,-80.035 -2.899,-80.035C-3.52,-80.035 -4.273,-80.209 -5.161,-80.557C-6.051,-80.905 -7.057,-81.253 -8.177,-81.601C-9.299,-81.949 -10.555,-82.277 -11.947,-82.587C-13.339,-82.895 -14.847,-83.051 -16.471,-83.051C-18.404,-83.051 -20.298,-82.663 -22.154,-81.891C-24.01,-81.117 -25.964,-79.841 -28.012,-78.063C-30.062,-76.283 -32.207,-73.925 -34.449,-70.988C-36.693,-68.048 -39.167,-64.452 -41.873,-60.2L-41.873,8.467C-41.873,9.086 -42.028,9.608 -42.336,10.032C-42.646,10.458 -43.148,10.826 -43.844,11.134C-44.541,11.442 -45.508,11.674 -46.744,11.83C-47.982,11.984 -49.568,12.063 -51.5,12.063C-53.356,12.063 -54.903,11.984 -56.14,11.83C-57.377,11.674 -58.363,11.442 -59.097,11.134C-59.833,10.826 -60.335,10.458 -60.605,10.032C-60.877,9.608 -61.011,9.086 -61.011,8.467L-61.011,-95.926C-61.011,-96.543 -60.895,-97.065 -60.663,-97.492C-60.431,-97.915 -59.967,-98.304 -59.271,-98.651C-58.575,-98.999 -57.688,-99.231 -56.604,-99.348C-55.521,-99.463 -54.092,-99.521 -52.312,-99.521C-50.612,-99.521 -49.2,-99.463 -48.078,-99.348C-46.958,-99.231 -46.088,-98.999 -45.468,-98.651C-44.85,-98.304 -44.406,-97.915 -44.134,-97.492C-43.864,-97.065 -43.729,-96.543 -43.729,-95.926L-43.729,-80.731C-40.869,-84.907 -38.181,-88.308 -35.667,-90.938C-33.155,-93.566 -30.777,-95.636 -28.534,-97.144C-26.292,-98.651 -24.068,-99.695 -21.864,-100.275C-19.66,-100.855 -17.438,-101.145 -15.195,-101.145C-14.19,-101.145 -13.049,-101.087 -11.773,-100.971C-10.497,-100.855 -9.163,-100.642 -7.771,-100.333C-6.379,-100.023 -5.124,-99.675 -4.001,-99.29C-2.881,-98.901 -2.087,-98.516 -1.624,-98.129C-1.16,-97.742 -0.852,-97.375 -0.696,-97.027C-0.542,-96.68 -0.406,-96.234 -0.29,-95.694C-0.174,-95.152 -0.098,-94.36 -0.058,-93.316C-0.02,-92.272 0,-90.86 0,-89.082" style="fill:rgb(104,193,0);fill-rule:nonzero;"/>
    </g>
    <g transform="matrix(1,0,0,1,542.956,211.868)">
        <path d="M0,94.069C0,95.539 -0.116,96.795 -0.348,97.839C-0.58,98.882 -0.852,99.734 -1.16,100.39C-1.47,101.048 -1.896,101.512 -2.436,101.782C-2.978,102.054 -3.558,102.188 -4.176,102.188L-68.435,102.188C-70.059,102.188 -71.393,101.648 -72.437,100.564C-73.48,99.482 -74.002,97.665 -74.002,95.113L-74.002,91.169C-74.002,90.087 -73.926,89.121 -73.771,88.269C-73.616,87.42 -73.384,86.569 -73.075,85.717C-72.767,84.868 -72.34,83.96 -71.799,82.992C-71.259,82.026 -70.601,80.923 -69.827,79.686L-23.778,8.003L-68.435,8.003C-69.673,8.003 -70.659,7.365 -71.393,6.09C-72.128,4.814 -72.495,2.746 -72.495,-0.116C-72.495,-1.508 -72.418,-2.726 -72.263,-3.77C-72.108,-4.814 -71.856,-5.664 -71.509,-6.322C-71.161,-6.978 -70.737,-7.442 -70.233,-7.714C-69.731,-7.984 -69.131,-8.119 -68.435,-8.119L-8.583,-8.119C-7.733,-8.119 -6.979,-8.004 -6.322,-7.771C-5.666,-7.539 -5.104,-7.152 -4.64,-6.612C-4.176,-6.07 -3.81,-5.374 -3.538,-4.524C-3.268,-3.672 -3.132,-2.59 -3.132,-1.276L-3.132,2.436C-3.132,3.52 -3.21,4.524 -3.364,5.451C-3.52,6.38 -3.751,7.289 -4.06,8.177C-4.37,9.067 -4.795,10.015 -5.335,11.019C-5.877,12.025 -6.536,13.147 -7.308,14.383L-53.124,86.065L-4.176,86.065C-3.558,86.065 -2.998,86.201 -2.494,86.471C-1.992,86.743 -1.566,87.187 -1.218,87.805C-0.87,88.425 -0.58,89.256 -0.348,90.299C-0.116,91.343 0,92.601 0,94.069" style="fill:rgb(104,193,0);fill-rule:nonzero;"/>
    </g>
    <g transform="matrix(1,0,0,1,625.889,254.204)">
        <path d="M0,9.396L-16.355,9.396C-21.614,9.396 -26.176,9.842 -30.042,10.73C-33.909,11.62 -37.117,12.934 -39.669,14.673C-42.221,16.414 -44.097,18.501 -45.294,20.937C-46.495,23.373 -47.092,26.176 -47.092,29.346C-47.092,34.76 -45.373,39.072 -41.931,42.28C-38.491,45.489 -33.677,47.093 -27.49,47.093C-22.464,47.093 -17.805,45.817 -13.513,43.265C-9.221,40.713 -4.718,36.81 0,31.55L0,9.396ZM19.022,57.068C19.022,57.997 18.712,58.692 18.095,59.156C17.475,59.62 16.625,59.968 15.543,60.2C14.459,60.432 12.875,60.548 10.787,60.548C8.775,60.548 7.171,60.432 5.974,60.2C4.774,59.968 3.904,59.62 3.364,59.156C2.822,58.692 2.552,57.997 2.552,57.068L2.552,46.629C-2.012,51.5 -7.096,55.291 -12.701,57.997C-18.309,60.702 -24.242,62.056 -30.506,62.056C-35.997,62.056 -40.965,61.34 -45.411,59.91C-49.858,58.48 -53.646,56.413 -56.778,53.705C-59.91,50.999 -62.345,47.673 -64.085,43.729C-65.825,39.786 -66.695,35.302 -66.695,30.274C-66.695,24.399 -65.497,19.295 -63.099,14.963C-60.703,10.634 -57.262,7.038 -52.776,4.176C-48.292,1.316 -42.801,-0.83 -36.305,-2.261C-29.81,-3.691 -22.502,-4.407 -14.383,-4.407L0,-4.407L0,-12.526C0,-16.546 -0.426,-20.104 -1.276,-23.198C-2.128,-26.29 -3.5,-28.861 -5.394,-30.911C-7.29,-32.959 -9.743,-34.507 -12.759,-35.551C-15.775,-36.595 -19.487,-37.117 -23.894,-37.117C-28.612,-37.117 -32.846,-36.555 -36.595,-35.435C-40.347,-34.313 -43.633,-33.075 -46.455,-31.723C-49.278,-30.369 -51.636,-29.131 -53.53,-28.011C-55.426,-26.89 -56.836,-26.33 -57.764,-26.33C-58.383,-26.33 -58.924,-26.483 -59.388,-26.793C-59.852,-27.102 -60.257,-27.565 -60.605,-28.185C-60.954,-28.803 -61.206,-29.595 -61.359,-30.563C-61.515,-31.529 -61.591,-32.593 -61.591,-33.753C-61.591,-35.685 -61.458,-37.213 -61.186,-38.334C-60.916,-39.455 -60.257,-40.519 -59.213,-41.524C-58.169,-42.528 -56.372,-43.708 -53.82,-45.062C-51.268,-46.414 -48.331,-47.652 -45.005,-48.774C-41.681,-49.894 -38.045,-50.822 -34.102,-51.558C-30.158,-52.292 -26.176,-52.66 -22.154,-52.66C-14.655,-52.66 -8.275,-51.808 -3.016,-50.107C2.242,-48.406 6.496,-45.912 9.743,-42.626C12.991,-39.338 15.349,-35.261 16.819,-30.389C18.287,-25.518 19.022,-19.834 19.022,-13.338L19.022,57.068Z" style="fill:rgb(104,193,0);fill-rule:nonzero;"/>
    </g>
    <g transform="matrix(1,0,0,1,739.677,254.204)">
        <path d="M0,9.396L-16.355,9.396C-21.614,9.396 -26.176,9.842 -30.042,10.73C-33.909,11.62 -37.117,12.934 -39.669,14.673C-42.221,16.414 -44.097,18.501 -45.294,20.937C-46.495,23.373 -47.092,26.176 -47.092,29.346C-47.092,34.76 -45.373,39.072 -41.931,42.28C-38.491,45.489 -33.677,47.093 -27.49,47.093C-22.464,47.093 -17.805,45.817 -13.513,43.265C-9.221,40.713 -4.718,36.81 0,31.55L0,9.396ZM19.022,57.068C19.022,57.997 18.712,58.692 18.095,59.156C17.475,59.62 16.625,59.968 15.543,60.2C14.459,60.432 12.875,60.548 10.787,60.548C8.775,60.548 7.171,60.432 5.974,60.2C4.774,59.968 3.904,59.62 3.364,59.156C2.822,58.692 2.552,57.997 2.552,57.068L2.552,46.629C-2.012,51.5 -7.096,55.291 -12.701,57.997C-18.309,60.702 -24.242,62.056 -30.506,62.056C-35.997,62.056 -40.965,61.34 -45.411,59.91C-49.858,58.48 -53.646,56.413 -56.778,53.705C-59.91,50.999 -62.345,47.673 -64.085,43.729C-65.825,39.786 -66.695,35.302 -66.695,30.274C-66.695,24.399 -65.497,19.295 -63.099,14.963C-60.703,10.634 -57.262,7.038 -52.776,4.176C-48.292,1.316 -42.801,-0.83 -36.305,-2.261C-29.81,-3.691 -22.502,-4.407 -14.383,-4.407L0,-4.407L0,-12.526C0,-16.546 -0.426,-20.104 -1.276,-23.198C-2.128,-26.29 -3.5,-28.861 -5.394,-30.911C-7.29,-32.959 -9.743,-34.507 -12.759,-35.551C-15.775,-36.595 -19.487,-37.117 -23.894,-37.117C-28.612,-37.117 -32.846,-36.555 -36.595,-35.435C-40.347,-34.313 -43.633,-33.075 -46.455,-31.723C-49.278,-30.369 -51.636,-29.131 -53.53,-28.011C-55.426,-26.89 -56.836,-26.33 -57.764,-26.33C-58.383,-26.33 -58.924,-26.483 -59.388,-26.793C-59.852,-27.102 -60.257,-27.565 -60.605,-28.185C-60.954,-28.803 -61.206,-29.595 -61.359,-30.563C-61.515,-31.529 -61.591,-32.593 -61.591,-33.753C-61.591,-35.685 -61.458,-37.213 -61.186,-38.334C-60.916,-39.455 -60.257,-40.519 -59.213,-41.524C-58.169,-42.528 -56.372,-43.708 -53.82,-45.062C-51.268,-46.414 -48.331,-47.652 -45.005,-48.774C-41.681,-49.894 -38.045,-50.822 -34.102,-51.558C-30.158,-52.292 -26.176,-52.66 -22.154,-52.66C-14.655,-52.66 -8.275,-51.808 -3.016,-50.107C2.242,-48.406 6.496,-45.912 9.743,-42.626C12.991,-39.338 15.349,-35.261 16.819,-30.389C18.287,-25.518 19.022,-19.834 19.022,-13.338L19.022,57.068Z" style="fill:rgb(104,193,0);fill-rule:nonzero;"/>
    </g>
    <g transform="matrix(1,0,0,1,948.692,205.141)">
        <path d="M0,106.016C0,106.635 -0.155,107.158 -0.464,107.581C-0.773,108.007 -1.275,108.375 -1.972,108.683C-2.668,108.992 -3.636,109.223 -4.871,109.379C-6.109,109.534 -7.655,109.612 -9.511,109.612C-11.445,109.612 -13.03,109.534 -14.267,109.379C-15.505,109.223 -16.49,108.992 -17.225,108.683C-17.96,108.375 -18.482,108.007 -18.79,107.581C-19.101,107.158 -19.254,106.635 -19.254,106.016L-19.254,42.568C-19.254,38.161 -19.643,34.141 -20.414,30.505C-21.188,26.871 -22.426,23.74 -24.126,21.11C-25.828,18.482 -27.993,16.471 -30.621,15.078C-33.251,13.686 -36.345,12.991 -39.9,12.991C-44.309,12.991 -48.736,14.692 -53.182,18.094C-57.629,21.498 -62.519,26.486 -67.854,33.057L-67.854,106.016C-67.854,106.635 -68.011,107.158 -68.319,107.581C-68.628,108.007 -69.15,108.375 -69.884,108.683C-70.62,108.992 -71.606,109.223 -72.842,109.379C-74.08,109.534 -75.626,109.612 -77.482,109.612C-79.262,109.612 -80.788,109.534 -82.063,109.379C-83.339,109.223 -84.345,108.992 -85.079,108.683C-85.815,108.375 -86.317,108.007 -86.587,107.581C-86.859,107.158 -86.993,106.635 -86.993,106.016L-86.993,42.568C-86.993,38.161 -87.419,34.141 -88.269,30.505C-89.121,26.871 -90.397,23.74 -92.097,21.11C-93.799,18.482 -95.944,16.471 -98.534,15.078C-101.126,13.686 -104.2,12.991 -107.756,12.991C-112.163,12.991 -116.611,14.692 -121.095,18.094C-125.58,21.498 -130.452,26.486 -135.709,33.057L-135.709,106.016C-135.709,106.635 -135.865,107.158 -136.173,107.581C-136.483,108.007 -136.985,108.375 -137.681,108.683C-138.377,108.992 -139.345,109.223 -140.581,109.379C-141.819,109.534 -143.405,109.612 -145.337,109.612C-147.193,109.612 -148.74,109.534 -149.977,109.379C-151.214,109.223 -152.2,108.992 -152.934,108.683C-153.67,108.375 -154.172,108.007 -154.442,107.581C-154.714,107.158 -154.848,106.635 -154.848,106.016L-154.848,1.623C-154.848,1.006 -154.732,0.484 -154.5,0.058C-154.268,-0.366 -153.804,-0.755 -153.108,-1.102C-152.412,-1.45 -151.524,-1.682 -150.44,-1.798C-149.358,-1.914 -147.929,-1.972 -146.149,-1.972C-144.449,-1.972 -143.037,-1.914 -141.915,-1.798C-140.795,-1.682 -139.925,-1.45 -139.305,-1.102C-138.687,-0.755 -138.243,-0.366 -137.971,0.058C-137.701,0.484 -137.565,1.006 -137.565,1.623L-137.565,15.427C-131.689,8.855 -125.986,4.041 -120.457,0.986C-114.929,-2.068 -109.341,-3.596 -103.696,-3.596C-99.366,-3.596 -95.48,-3.092 -92.039,-2.088C-88.599,-1.082 -85.563,0.329 -82.934,2.145C-80.306,3.963 -78.062,6.129 -76.206,8.641C-74.35,11.155 -72.804,13.958 -71.566,17.05C-68.086,13.263 -64.781,10.053 -61.649,7.423C-58.518,4.795 -55.501,2.667 -52.602,1.043C-49.702,-0.58 -46.88,-1.758 -44.135,-2.494C-41.391,-3.228 -38.625,-3.596 -35.841,-3.596C-29.113,-3.596 -23.47,-2.416 -18.906,-0.058C-14.345,2.301 -10.653,5.451 -7.829,9.395C-5.008,13.339 -2.997,17.96 -1.798,23.256C-0.6,28.554 0,34.141 0,40.016L0,106.016Z" style="fill:rgb(104,193,0);fill-rule:nonzero;"/>
    </g>
    <g transform="matrix(1,0,0,1,1063.76,205.836)">
        <path d="M0,66.347C0,61.864 -0.714,57.92 -2.143,54.516C-3.57,51.114 -5.652,48.253 -8.393,45.933C-11.133,43.613 -14.567,41.855 -18.696,40.655C-22.825,39.457 -28.016,38.857 -34.265,38.857L-58.111,38.857L-58.111,91.749L-29.172,91.749C-24.619,91.749 -20.645,91.209 -17.248,90.125C-13.854,89.043 -10.863,87.44 -8.277,85.312C-5.692,83.186 -3.666,80.538 -2.2,77.367C-0.734,74.197 0,70.523 0,66.347M-9.047,-1.972C-9.047,-5.606 -9.549,-8.891 -10.552,-11.831C-11.556,-14.769 -13.136,-17.262 -15.296,-19.312C-17.457,-21.36 -20.273,-22.926 -23.744,-24.01C-27.216,-25.092 -31.805,-25.634 -37.514,-25.634L-58.111,-25.634L-58.111,22.967L-35.432,22.967C-30.263,22.967 -26.098,22.29 -22.934,20.937C-19.771,19.585 -17.148,17.767 -15.064,15.485C-12.981,13.205 -11.458,10.537 -10.493,7.482C-9.529,4.428 -9.047,1.276 -9.047,-1.972M20.994,65.187C20.994,69.905 20.395,74.254 19.196,78.237C17.997,82.22 16.315,85.795 14.151,88.965C11.985,92.137 9.375,94.921 6.321,97.317C3.266,99.714 -0.174,101.725 -4.002,103.348C-7.829,104.972 -11.929,106.19 -16.297,107.002C-20.666,107.814 -25.674,108.22 -31.317,108.22L-70.522,108.22C-72.303,108.22 -73.984,107.622 -75.568,106.422C-77.154,105.224 -77.946,103.117 -77.946,100.101L-77.946,-33.753C-77.946,-36.769 -77.154,-38.875 -75.568,-40.075C-73.984,-41.273 -72.303,-41.873 -70.522,-41.873L-36.421,-41.873C-27.452,-41.873 -20.106,-41.021 -14.383,-39.321C-8.661,-37.619 -3.886,-35.145 -0.058,-31.897C3.77,-28.65 6.649,-24.666 8.583,-19.95C10.516,-15.233 11.483,-9.897 11.483,-3.944C11.483,-0.386 11.058,3.016 10.207,6.264C9.355,9.512 8.1,12.509 6.437,15.253C4.773,17.999 2.686,20.454 0.174,22.618C-2.34,24.784 -5.22,26.562 -8.467,27.954C-4.369,28.728 -0.542,30.14 3.016,32.188C6.571,34.238 9.686,36.847 12.354,40.017C15.021,43.189 17.127,46.901 18.675,51.152C20.221,55.406 20.994,60.084 20.994,65.187" style="fill:rgb(73,73,73);fill-rule:nonzero;"/>
    </g>
    <g transform="matrix(1,0,0,1,1182.65,269.052)">
        <path d="M0,-20.299C0.232,-30.35 -2.006,-38.237 -6.711,-43.961C-11.418,-49.683 -18.4,-52.545 -27.658,-52.545C-32.405,-52.545 -36.568,-51.654 -40.146,-49.877C-43.725,-48.097 -46.721,-45.739 -49.133,-42.801C-51.545,-39.861 -53.412,-36.44 -54.735,-32.536C-56.058,-28.63 -56.796,-24.55 -56.951,-20.299L0,-20.299ZM19.255,-14.615C19.255,-11.599 18.497,-9.454 16.982,-8.178C15.467,-6.902 13.739,-6.264 11.797,-6.264L-56.951,-6.264C-56.951,-0.465 -56.37,4.755 -55.204,9.395C-54.039,14.034 -52.097,18.018 -49.376,21.342C-46.657,24.667 -43.121,27.219 -38.77,28.997C-34.418,30.778 -29.096,31.665 -22.801,31.665C-17.828,31.665 -13.4,31.259 -9.515,30.448C-5.629,29.635 -2.269,28.728 0.567,27.722C3.403,26.717 5.734,25.808 7.562,24.995C9.388,24.184 10.768,23.778 11.701,23.778C12.244,23.778 12.729,23.913 13.156,24.184C13.584,24.455 13.914,24.862 14.147,25.402C14.38,25.944 14.556,26.698 14.671,27.663C14.787,28.631 14.847,29.809 14.847,31.201C14.847,32.207 14.808,33.077 14.731,33.811C14.653,34.547 14.557,35.203 14.441,35.783C14.325,36.363 14.131,36.885 13.861,37.349C13.589,37.813 13.241,38.258 12.817,38.683C12.392,39.109 11.136,39.805 9.048,40.771C6.96,41.739 4.252,42.684 0.928,43.613C-2.397,44.54 -6.245,45.37 -10.613,46.106C-14.982,46.84 -19.643,47.208 -24.59,47.208C-33.174,47.208 -40.694,46.008 -47.15,43.613C-53.607,41.216 -59.039,37.659 -63.447,32.941C-67.854,28.225 -71.181,22.31 -73.422,15.195C-75.666,8.081 -76.786,-0.193 -76.786,-9.628C-76.786,-18.597 -75.626,-26.658 -73.307,-33.812C-70.986,-40.964 -67.643,-47.035 -63.273,-52.023C-58.905,-57.01 -53.628,-60.838 -47.44,-63.506C-41.255,-66.174 -34.333,-67.507 -26.678,-67.507C-18.482,-67.507 -11.503,-66.192 -5.741,-63.564C0.019,-60.934 4.756,-57.396 8.468,-52.95C12.18,-48.503 14.905,-43.283 16.645,-37.292C18.385,-31.298 19.255,-24.899 19.255,-18.095L19.255,-14.615Z" style="fill:rgb(73,73,73);fill-rule:nonzero;"/>
    </g>
    <g transform="matrix(1,0,0,1,1250.15,156.077)">
        <path d="M0,155.08C0,155.699 -0.155,156.222 -0.464,156.645C-0.773,157.071 -1.275,157.439 -1.972,157.747C-2.667,158.056 -3.635,158.287 -4.871,158.443C-6.109,158.598 -7.695,158.676 -9.627,158.676C-11.482,158.676 -13.03,158.598 -14.267,158.443C-15.504,158.287 -16.49,158.056 -17.225,157.747C-17.96,157.439 -18.462,157.071 -18.732,156.645C-19.004,156.222 -19.138,155.699 -19.138,155.08L-19.138,0.115C-19.138,-0.503 -19.004,-1.045 -18.732,-1.508C-18.462,-1.973 -17.96,-2.358 -17.225,-2.669C-16.49,-2.977 -15.504,-3.209 -14.267,-3.364C-13.03,-3.519 -11.482,-3.596 -9.627,-3.596C-7.695,-3.596 -6.109,-3.519 -4.871,-3.364C-3.635,-3.209 -2.667,-2.977 -1.972,-2.669C-1.275,-2.358 -0.773,-1.973 -0.464,-1.508C-0.155,-1.045 0,-0.503 0,0.115L0,155.08Z" style="fill:rgb(73,73,73);fill-rule:nonzero;"/>
    </g>
    <g transform="matrix(1,0,0,1,1345.15,254.204)">
        <path d="M0,9.396L-16.354,9.396C-21.614,9.396 -26.176,9.842 -30.042,10.73C-33.909,11.62 -37.117,12.934 -39.669,14.673C-42.221,16.414 -44.097,18.501 -45.295,20.937C-46.494,23.373 -47.093,26.176 -47.093,29.346C-47.093,34.76 -45.373,39.072 -41.931,42.28C-38.491,45.489 -33.678,47.093 -27.49,47.093C-22.464,47.093 -17.805,45.817 -13.513,43.265C-9.222,40.713 -4.718,36.81 0,31.55L0,9.396ZM19.022,57.068C19.022,57.997 18.713,58.692 18.095,59.156C17.475,59.62 16.625,59.968 15.543,60.2C14.459,60.432 12.875,60.548 10.787,60.548C8.775,60.548 7.172,60.432 5.974,60.2C4.773,59.968 3.903,59.62 3.363,59.156C2.822,58.692 2.552,57.997 2.552,57.068L2.552,46.629C-2.012,51.5 -7.096,55.291 -12.701,57.997C-18.309,60.702 -24.242,62.056 -30.506,62.056C-35.997,62.056 -40.965,61.34 -45.41,59.91C-49.858,58.48 -53.646,56.413 -56.777,53.705C-59.909,50.999 -62.346,47.673 -64.085,43.729C-65.825,39.786 -66.695,35.302 -66.695,30.274C-66.695,24.399 -65.497,19.295 -63.1,14.963C-60.703,10.634 -57.262,7.038 -52.776,4.176C-48.292,1.316 -42.801,-0.83 -36.306,-2.261C-29.81,-3.691 -22.502,-4.407 -14.383,-4.407L0,-4.407L0,-12.526C0,-16.546 -0.426,-20.104 -1.276,-23.198C-2.128,-26.29 -3.5,-28.861 -5.394,-30.911C-7.289,-32.959 -9.743,-34.507 -12.759,-35.551C-15.774,-36.595 -19.486,-37.117 -23.895,-37.117C-28.612,-37.117 -32.846,-36.555 -36.596,-35.435C-40.347,-34.313 -43.633,-33.075 -46.454,-31.723C-49.278,-30.369 -51.636,-29.131 -53.53,-28.011C-55.426,-26.89 -56.836,-26.33 -57.764,-26.33C-58.384,-26.33 -58.924,-26.483 -59.388,-26.793C-59.852,-27.102 -60.258,-27.565 -60.605,-28.185C-60.953,-28.803 -61.205,-29.595 -61.359,-30.563C-61.516,-31.529 -61.592,-32.593 -61.592,-33.753C-61.592,-35.685 -61.457,-37.213 -61.186,-38.334C-60.915,-39.455 -60.258,-40.519 -59.214,-41.524C-58.17,-42.528 -56.372,-43.708 -53.82,-45.062C-51.269,-46.414 -48.33,-47.652 -45.005,-48.774C-41.681,-49.894 -38.045,-50.822 -34.102,-51.558C-30.158,-52.292 -26.176,-52.66 -22.154,-52.66C-14.655,-52.66 -8.275,-51.808 -3.016,-50.107C2.242,-48.406 6.495,-45.912 9.743,-42.626C12.991,-39.338 15.349,-35.261 16.818,-30.389C18.287,-25.518 19.022,-19.834 19.022,-13.338L19.022,57.068Z" style="fill:rgb(73,73,73);fill-rule:nonzero;"/>
    </g>
    <g transform="matrix(1,0,0,1,1489.21,205.141)">
        <path d="M0,106.016C0,106.635 -0.155,107.158 -0.464,107.581C-0.773,108.007 -1.275,108.375 -1.972,108.683C-2.668,108.992 -3.636,109.223 -4.871,109.379C-6.109,109.534 -7.655,109.612 -9.511,109.612C-11.445,109.612 -13.03,109.534 -14.267,109.379C-15.505,109.223 -16.471,108.992 -17.166,108.683C-17.862,108.375 -18.366,108.007 -18.675,107.581C-18.984,107.158 -19.139,106.635 -19.139,106.016L-19.139,44.888C-19.139,38.934 -19.603,34.141 -20.53,30.505C-21.458,26.871 -22.812,23.74 -24.59,21.11C-26.37,18.482 -28.67,16.471 -31.491,15.078C-34.315,13.686 -37.581,12.991 -41.293,12.991C-46.088,12.991 -50.882,14.692 -55.676,18.094C-60.471,21.498 -65.497,26.486 -70.755,33.057L-70.755,106.016C-70.755,106.635 -70.91,107.158 -71.219,107.581C-71.528,108.007 -72.03,108.375 -72.727,108.683C-73.422,108.992 -74.39,109.223 -75.626,109.379C-76.864,109.534 -78.45,109.612 -80.382,109.612C-82.237,109.612 -83.785,109.534 -85.021,109.379C-86.259,109.223 -87.245,108.992 -87.979,108.683C-88.715,108.375 -89.217,108.007 -89.487,107.581C-89.759,107.158 -89.893,106.635 -89.893,106.016L-89.893,1.623C-89.893,1.006 -89.777,0.484 -89.545,0.058C-89.313,-0.366 -88.849,-0.755 -88.153,-1.102C-87.457,-1.45 -86.569,-1.682 -85.485,-1.798C-84.403,-1.914 -82.974,-1.972 -81.193,-1.972C-79.493,-1.972 -78.082,-1.914 -76.96,-1.798C-75.84,-1.682 -74.97,-1.45 -74.351,-1.102C-73.732,-0.755 -73.288,-0.366 -73.017,0.058C-72.746,0.484 -72.61,1.006 -72.61,1.623L-72.61,15.427C-66.734,8.855 -60.877,4.041 -55.038,0.986C-49.2,-2.068 -43.305,-3.596 -37.349,-3.596C-30.39,-3.596 -24.532,-2.416 -19.776,-0.058C-15.021,2.301 -11.175,5.451 -8.235,9.395C-5.297,13.339 -3.189,17.96 -1.914,23.256C-0.638,28.554 0,34.913 0,42.336L0,106.016Z" style="fill:rgb(73,73,73);fill-rule:nonzero;"/>
    </g>
    <g transform="matrix(1,0,0,1,1581.42,319.16)">
        <path d="M0,-80.15C0,-87.263 -1.953,-92.811 -5.857,-96.795C-9.763,-100.776 -15.311,-102.768 -22.502,-102.768C-26.214,-102.768 -29.443,-102.149 -32.188,-100.912C-34.933,-99.674 -37.215,-97.973 -39.03,-95.809C-40.849,-93.643 -42.202,-91.149 -43.09,-88.327C-43.98,-85.504 -44.424,-82.546 -44.424,-79.454C-44.424,-72.57 -42.473,-67.159 -38.566,-63.215C-34.663,-59.272 -29.191,-57.3 -22.154,-57.3C-18.366,-57.3 -15.078,-57.898 -12.295,-59.098C-9.511,-60.296 -7.211,-61.958 -5.394,-64.085C-3.577,-66.211 -2.224,-68.667 -1.333,-71.451C-0.445,-74.234 0,-77.134 0,-80.15M9.628,2.552C9.628,-1.934 7.79,-5.394 4.118,-7.829C0.444,-10.265 -4.523,-11.56 -10.787,-11.715L-37.813,-12.643C-40.288,-10.709 -42.318,-8.873 -43.902,-7.134C-45.488,-5.394 -46.744,-3.732 -47.672,-2.146C-48.6,-0.562 -49.238,1.004 -49.586,2.552C-49.934,4.098 -50.107,5.683 -50.107,7.307C-50.107,12.333 -47.556,16.14 -42.452,18.732C-37.349,21.322 -30.235,22.618 -21.11,22.618C-15.311,22.618 -10.459,22.057 -6.553,20.936C-2.649,19.814 0.503,18.327 2.9,16.471C5.296,14.615 7.018,12.487 8.062,10.092C9.105,7.693 9.628,5.18 9.628,2.552M29.926,-107.64C29.926,-104.932 29.559,-102.98 28.824,-101.782C28.089,-100.583 27.143,-99.984 25.982,-99.984L11.02,-99.984C13.726,-97.201 15.619,-94.127 16.703,-90.763C17.785,-87.4 18.327,-83.9 18.327,-80.266C18.327,-74.234 17.359,-68.899 15.428,-64.259C13.493,-59.62 10.729,-55.694 7.134,-52.486C3.538,-49.276 -0.735,-46.82 -5.684,-45.121C-10.633,-43.419 -16.122,-42.568 -22.154,-42.568C-26.407,-42.568 -30.447,-43.129 -34.275,-44.251C-38.103,-45.371 -41.061,-46.782 -43.148,-48.484C-44.54,-47.092 -45.682,-45.506 -46.57,-43.729C-47.46,-41.949 -47.904,-39.901 -47.904,-37.581C-47.904,-34.873 -46.648,-32.632 -44.134,-30.854C-41.622,-29.074 -38.276,-28.108 -34.101,-27.954L-6.843,-26.794C-1.663,-26.638 3.093,-25.924 7.424,-24.649C11.754,-23.372 15.503,-21.555 18.675,-19.196C21.845,-16.837 24.318,-13.937 26.099,-10.497C27.876,-7.056 28.767,-3.056 28.767,1.508C28.767,6.302 27.761,10.863 25.75,15.195C23.738,19.524 20.665,23.332 16.529,26.62C12.392,29.906 7.114,32.496 0.696,34.391C-5.723,36.285 -13.301,37.233 -22.038,37.233C-30.467,37.233 -37.639,36.517 -43.555,35.088C-49.47,33.655 -54.323,31.704 -58.111,29.229C-61.9,26.754 -64.646,23.797 -66.347,20.356C-68.049,16.915 -68.898,13.183 -68.898,9.163C-68.898,6.611 -68.59,4.136 -67.971,1.74C-67.353,-0.658 -66.404,-2.94 -65.129,-5.104C-63.853,-7.268 -62.269,-9.337 -60.373,-11.309C-58.479,-13.281 -56.295,-15.233 -53.819,-17.167C-57.609,-19.099 -60.413,-21.534 -62.229,-24.474C-64.047,-27.412 -64.955,-30.582 -64.955,-33.985C-64.955,-38.701 -63.988,-42.917 -62.055,-46.629C-60.123,-50.34 -57.726,-53.664 -54.863,-56.604C-57.261,-59.463 -59.155,-62.693 -60.547,-66.289C-61.938,-69.885 -62.635,-74.234 -62.635,-79.338C-62.635,-85.292 -61.631,-90.627 -59.619,-95.345C-57.609,-100.061 -54.825,-104.044 -51.268,-107.292C-47.712,-110.54 -43.438,-113.033 -38.45,-114.774C-33.463,-116.513 -28.031,-117.383 -22.154,-117.383C-18.984,-117.383 -16.026,-117.209 -13.28,-116.861C-10.537,-116.513 -7.965,-116.029 -5.567,-115.411L25.982,-115.411C27.297,-115.411 28.282,-114.774 28.94,-113.497C29.597,-112.221 29.926,-110.268 29.926,-107.64" style="fill:rgb(73,73,73);fill-rule:nonzero;"/>
    </g>
    <defs>
        <linearGradient id="_Linear1" x1="0" y1="0" x2="1" y2="0" gradientUnits="userSpaceOnUse" gradientTransform="matrix(3.45436e-14,-564.14,564.14,3.45436e-14,430,564.14)"><stop offset="0" style="stop-color:rgb(212,0,0);stop-opacity:1"/><stop offset="0.5" style="stop-color:rgb(251,255,0);stop-opacity:1"/><stop offset="1" style="stop-color:rgb(0,98,9);stop-opacity:1"/></linearGradient>
    </defs>
</svg>
